<mxfile host="app.diagrams.net" agent="Mozilla/5.0 (Windows NT 10.0; Win64; x64) AppleWebKit/537.36 (KHTML, like Gecko) Chrome/128.0.0.0 Safari/537.36" version="24.7.17">
  <diagram name="Página-1" id="cqAR_hnma5X3vkH-rAeM">
    <mxGraphModel grid="1" page="1" gridSize="10" guides="1" tooltips="1" connect="1" arrows="1" fold="1" pageScale="1" pageWidth="827" pageHeight="1169" math="0" shadow="0">
      <root>
        <mxCell id="0" />
        <mxCell id="1" parent="0" />
        <mxCell id="6NzxlKT72TGMnHqDzSqp-1" value="clientes" style="rounded=0;whiteSpace=wrap;html=1;" vertex="1" parent="1">
          <mxGeometry x="160" y="240" width="120" height="60" as="geometry" />
        </mxCell>
        <mxCell id="6NzxlKT72TGMnHqDzSqp-22" value="compras" style="rhombus;whiteSpace=wrap;html=1;" vertex="1" parent="1">
          <mxGeometry x="350" y="230" width="80" height="80" as="geometry" />
        </mxCell>
        <mxCell id="6NzxlKT72TGMnHqDzSqp-24" value="" style="endArrow=none;html=1;rounded=0;entryX=0;entryY=0.5;entryDx=0;entryDy=0;exitX=1;exitY=0.5;exitDx=0;exitDy=0;" edge="1" parent="1" source="6NzxlKT72TGMnHqDzSqp-1" target="6NzxlKT72TGMnHqDzSqp-22">
          <mxGeometry width="50" height="50" relative="1" as="geometry">
            <mxPoint x="420" y="430" as="sourcePoint" />
            <mxPoint x="470" y="380" as="targetPoint" />
          </mxGeometry>
        </mxCell>
        <mxCell id="6NzxlKT72TGMnHqDzSqp-25" value="productos" style="rounded=0;whiteSpace=wrap;html=1;" vertex="1" parent="1">
          <mxGeometry x="500" y="240" width="120" height="60" as="geometry" />
        </mxCell>
        <mxCell id="6NzxlKT72TGMnHqDzSqp-26" value="" style="endArrow=none;html=1;rounded=0;entryX=1;entryY=0.5;entryDx=0;entryDy=0;exitX=0;exitY=0.5;exitDx=0;exitDy=0;" edge="1" parent="1" source="6NzxlKT72TGMnHqDzSqp-25" target="6NzxlKT72TGMnHqDzSqp-22">
          <mxGeometry width="50" height="50" relative="1" as="geometry">
            <mxPoint x="370" y="450" as="sourcePoint" />
            <mxPoint x="420" y="400" as="targetPoint" />
          </mxGeometry>
        </mxCell>
        <mxCell id="6NzxlKT72TGMnHqDzSqp-27" value="almacen" style="rhombus;whiteSpace=wrap;html=1;" vertex="1" parent="1">
          <mxGeometry x="827" y="230" width="80" height="80" as="geometry" />
        </mxCell>
        <mxCell id="6NzxlKT72TGMnHqDzSqp-28" value="stock" style="whiteSpace=wrap;html=1;" vertex="1" parent="1">
          <mxGeometry x="1100" y="240" width="120" height="60" as="geometry" />
        </mxCell>
        <mxCell id="6NzxlKT72TGMnHqDzSqp-29" value="" style="endArrow=none;html=1;rounded=0;entryX=0;entryY=0.5;entryDx=0;entryDy=0;exitX=1;exitY=0.5;exitDx=0;exitDy=0;" edge="1" parent="1" source="6NzxlKT72TGMnHqDzSqp-25" target="6NzxlKT72TGMnHqDzSqp-27">
          <mxGeometry width="50" height="50" relative="1" as="geometry">
            <mxPoint x="340" y="410" as="sourcePoint" />
            <mxPoint x="390" y="360" as="targetPoint" />
          </mxGeometry>
        </mxCell>
        <mxCell id="6NzxlKT72TGMnHqDzSqp-30" value="" style="endArrow=none;html=1;rounded=0;entryX=1;entryY=0.5;entryDx=0;entryDy=0;exitX=0;exitY=0.5;exitDx=0;exitDy=0;" edge="1" parent="1" source="6NzxlKT72TGMnHqDzSqp-28" target="6NzxlKT72TGMnHqDzSqp-27">
          <mxGeometry width="50" height="50" relative="1" as="geometry">
            <mxPoint x="680" y="430" as="sourcePoint" />
            <mxPoint x="730" y="380" as="targetPoint" />
          </mxGeometry>
        </mxCell>
        <mxCell id="6NzxlKT72TGMnHqDzSqp-33" value="M:M" style="text;strokeColor=none;align=center;fillColor=none;html=1;verticalAlign=middle;whiteSpace=wrap;rounded=0;" vertex="1" parent="1">
          <mxGeometry x="360" y="200" width="60" height="30" as="geometry" />
        </mxCell>
        <mxCell id="6NzxlKT72TGMnHqDzSqp-39" value="nombre" style="ellipse;whiteSpace=wrap;html=1;" vertex="1" parent="1">
          <mxGeometry x="560" y="130" width="90" height="70" as="geometry" />
        </mxCell>
        <mxCell id="6NzxlKT72TGMnHqDzSqp-42" value="precio" style="ellipse;whiteSpace=wrap;html=1;" vertex="1" parent="1">
          <mxGeometry x="670" y="170" width="90" height="70" as="geometry" />
        </mxCell>
        <mxCell id="KfTbh1dECPJ_f9M-DG7v-1" value="M:M" style="text;html=1;align=center;verticalAlign=middle;whiteSpace=wrap;rounded=0;" vertex="1" parent="1">
          <mxGeometry x="837" y="190" width="60" height="30" as="geometry" />
        </mxCell>
        <mxCell id="KfTbh1dECPJ_f9M-DG7v-3" value="dirección" style="ellipse;whiteSpace=wrap;html=1;" vertex="1" parent="1">
          <mxGeometry x="130" y="110" width="90" height="70" as="geometry" />
        </mxCell>
        <mxCell id="KfTbh1dECPJ_f9M-DG7v-4" value="telefono" style="ellipse;whiteSpace=wrap;html=1;" vertex="1" parent="1">
          <mxGeometry x="40" y="180" width="90" height="70" as="geometry" />
        </mxCell>
        <mxCell id="KfTbh1dECPJ_f9M-DG7v-5" value="nombre_usuario" style="ellipse;whiteSpace=wrap;html=1;" vertex="1" parent="1">
          <mxGeometry x="30" y="280" width="90" height="70" as="geometry" />
        </mxCell>
        <mxCell id="KfTbh1dECPJ_f9M-DG7v-6" value="password" style="ellipse;whiteSpace=wrap;html=1;" vertex="1" parent="1">
          <mxGeometry x="120" y="350" width="90" height="70" as="geometry" />
        </mxCell>
        <mxCell id="KfTbh1dECPJ_f9M-DG7v-7" value="cantidad" style="ellipse;whiteSpace=wrap;html=1;" vertex="1" parent="1">
          <mxGeometry x="1115" y="120" width="90" height="70" as="geometry" />
        </mxCell>
        <mxCell id="KfTbh1dECPJ_f9M-DG7v-8" value="producto" style="ellipse;whiteSpace=wrap;html=1;" vertex="1" parent="1">
          <mxGeometry x="757" y="350" width="80" height="50" as="geometry" />
        </mxCell>
        <mxCell id="KfTbh1dECPJ_f9M-DG7v-11" value="" style="group" connectable="0" vertex="1" parent="1">
          <mxGeometry x="1190" y="350" width="90" height="70" as="geometry" />
        </mxCell>
        <mxCell id="KfTbh1dECPJ_f9M-DG7v-9" value="id" style="ellipse;whiteSpace=wrap;html=1;" vertex="1" parent="KfTbh1dECPJ_f9M-DG7v-11">
          <mxGeometry width="90" height="70" as="geometry" />
        </mxCell>
        <mxCell id="KfTbh1dECPJ_f9M-DG7v-10" value="" style="endArrow=none;html=1;rounded=0;" edge="1" parent="KfTbh1dECPJ_f9M-DG7v-11">
          <mxGeometry width="50" height="50" relative="1" as="geometry">
            <mxPoint x="36" y="40" as="sourcePoint" />
            <mxPoint x="56" y="40" as="targetPoint" />
          </mxGeometry>
        </mxCell>
        <mxCell id="KfTbh1dECPJ_f9M-DG7v-12" value="" style="group" connectable="0" vertex="1" parent="1">
          <mxGeometry x="440" y="150" width="90" height="70" as="geometry" />
        </mxCell>
        <mxCell id="6NzxlKT72TGMnHqDzSqp-40" value="id" style="ellipse;whiteSpace=wrap;html=1;" vertex="1" parent="KfTbh1dECPJ_f9M-DG7v-12">
          <mxGeometry width="90" height="70" as="geometry" />
        </mxCell>
        <mxCell id="6NzxlKT72TGMnHqDzSqp-41" value="" style="endArrow=none;html=1;rounded=0;fontSize=12;startSize=8;endSize=8;curved=1;" edge="1" parent="KfTbh1dECPJ_f9M-DG7v-12">
          <mxGeometry width="50" height="50" relative="1" as="geometry">
            <mxPoint x="30" y="40" as="sourcePoint" />
            <mxPoint x="60" y="40" as="targetPoint" />
          </mxGeometry>
        </mxCell>
        <mxCell id="KfTbh1dECPJ_f9M-DG7v-16" value="" style="endArrow=none;html=1;rounded=0;entryX=1;entryY=1;entryDx=0;entryDy=0;exitX=0;exitY=0;exitDx=0;exitDy=0;" edge="1" parent="1" source="KfTbh1dECPJ_f9M-DG7v-23" target="6NzxlKT72TGMnHqDzSqp-27">
          <mxGeometry width="50" height="50" relative="1" as="geometry">
            <mxPoint x="920" y="490" as="sourcePoint" />
            <mxPoint x="970" y="440" as="targetPoint" />
          </mxGeometry>
        </mxCell>
        <mxCell id="KfTbh1dECPJ_f9M-DG7v-17" value="producto" style="ellipse;whiteSpace=wrap;html=1;" vertex="1" parent="1">
          <mxGeometry x="390" y="330" width="80" height="50" as="geometry" />
        </mxCell>
        <mxCell id="KfTbh1dECPJ_f9M-DG7v-19" value="" style="group" connectable="0" vertex="1" parent="1">
          <mxGeometry x="230" y="120" width="90" height="70" as="geometry" />
        </mxCell>
        <mxCell id="KfTbh1dECPJ_f9M-DG7v-20" value="id" style="ellipse;whiteSpace=wrap;html=1;" vertex="1" parent="KfTbh1dECPJ_f9M-DG7v-19">
          <mxGeometry width="90" height="70" as="geometry" />
        </mxCell>
        <mxCell id="KfTbh1dECPJ_f9M-DG7v-21" value="" style="endArrow=none;html=1;rounded=0;fontSize=12;startSize=8;endSize=8;curved=1;" edge="1" parent="KfTbh1dECPJ_f9M-DG7v-19">
          <mxGeometry width="50" height="50" relative="1" as="geometry">
            <mxPoint x="30" y="40" as="sourcePoint" />
            <mxPoint x="60" y="40" as="targetPoint" />
          </mxGeometry>
        </mxCell>
        <mxCell id="KfTbh1dECPJ_f9M-DG7v-22" value="clientes" style="ellipse;whiteSpace=wrap;html=1;" vertex="1" parent="1">
          <mxGeometry x="300" y="330" width="80" height="50" as="geometry" />
        </mxCell>
        <mxCell id="KfTbh1dECPJ_f9M-DG7v-23" value="stock" style="ellipse;whiteSpace=wrap;html=1;" vertex="1" parent="1">
          <mxGeometry x="897" y="350" width="80" height="50" as="geometry" />
        </mxCell>
        <mxCell id="KfTbh1dECPJ_f9M-DG7v-24" value="" style="endArrow=none;html=1;rounded=0;entryX=0;entryY=1;entryDx=0;entryDy=0;exitX=1;exitY=0;exitDx=0;exitDy=0;" edge="1" parent="1" source="KfTbh1dECPJ_f9M-DG7v-8" target="6NzxlKT72TGMnHqDzSqp-27">
          <mxGeometry width="50" height="50" relative="1" as="geometry">
            <mxPoint x="827" y="347" as="sourcePoint" />
            <mxPoint x="805" y="280" as="targetPoint" />
          </mxGeometry>
        </mxCell>
        <mxCell id="KfTbh1dECPJ_f9M-DG7v-25" value="" style="endArrow=none;html=1;rounded=0;entryX=0;entryY=1;entryDx=0;entryDy=0;exitX=0.5;exitY=0;exitDx=0;exitDy=0;" edge="1" parent="1" source="KfTbh1dECPJ_f9M-DG7v-22" target="6NzxlKT72TGMnHqDzSqp-22">
          <mxGeometry width="50" height="50" relative="1" as="geometry">
            <mxPoint x="100" y="540" as="sourcePoint" />
            <mxPoint x="150" y="490" as="targetPoint" />
          </mxGeometry>
        </mxCell>
        <mxCell id="KfTbh1dECPJ_f9M-DG7v-26" value="" style="endArrow=none;html=1;rounded=0;entryX=1;entryY=1;entryDx=0;entryDy=0;exitX=0.5;exitY=0;exitDx=0;exitDy=0;" edge="1" parent="1" source="KfTbh1dECPJ_f9M-DG7v-17" target="6NzxlKT72TGMnHqDzSqp-22">
          <mxGeometry width="50" height="50" relative="1" as="geometry">
            <mxPoint x="290" y="670" as="sourcePoint" />
            <mxPoint x="340" y="620" as="targetPoint" />
          </mxGeometry>
        </mxCell>
        <mxCell id="KfTbh1dECPJ_f9M-DG7v-27" value="" style="endArrow=none;html=1;rounded=0;entryX=0.5;entryY=1;entryDx=0;entryDy=0;exitX=0.5;exitY=0;exitDx=0;exitDy=0;" edge="1" parent="1" source="KfTbh1dECPJ_f9M-DG7v-6" target="6NzxlKT72TGMnHqDzSqp-1">
          <mxGeometry width="50" height="50" relative="1" as="geometry">
            <mxPoint x="260" y="530" as="sourcePoint" />
            <mxPoint x="310" y="480" as="targetPoint" />
          </mxGeometry>
        </mxCell>
        <mxCell id="KfTbh1dECPJ_f9M-DG7v-28" value="" style="endArrow=none;html=1;rounded=0;entryX=0;entryY=0.5;entryDx=0;entryDy=0;exitX=1;exitY=0;exitDx=0;exitDy=0;" edge="1" parent="1" source="KfTbh1dECPJ_f9M-DG7v-5" target="6NzxlKT72TGMnHqDzSqp-1">
          <mxGeometry width="50" height="50" relative="1" as="geometry">
            <mxPoint x="100" y="490" as="sourcePoint" />
            <mxPoint x="150" y="440" as="targetPoint" />
          </mxGeometry>
        </mxCell>
        <mxCell id="KfTbh1dECPJ_f9M-DG7v-29" value="" style="endArrow=none;html=1;rounded=0;entryX=1;entryY=0.5;entryDx=0;entryDy=0;exitX=0;exitY=0;exitDx=0;exitDy=0;" edge="1" parent="1" source="6NzxlKT72TGMnHqDzSqp-1" target="KfTbh1dECPJ_f9M-DG7v-4">
          <mxGeometry width="50" height="50" relative="1" as="geometry">
            <mxPoint x="180" y="250" as="sourcePoint" />
            <mxPoint x="230" y="200" as="targetPoint" />
          </mxGeometry>
        </mxCell>
        <mxCell id="KfTbh1dECPJ_f9M-DG7v-30" value="" style="endArrow=none;html=1;rounded=0;entryX=0.5;entryY=1;entryDx=0;entryDy=0;exitX=0.75;exitY=0;exitDx=0;exitDy=0;" edge="1" parent="1" source="6NzxlKT72TGMnHqDzSqp-1" target="KfTbh1dECPJ_f9M-DG7v-20">
          <mxGeometry width="50" height="50" relative="1" as="geometry">
            <mxPoint x="190" y="520" as="sourcePoint" />
            <mxPoint x="240" y="470" as="targetPoint" />
          </mxGeometry>
        </mxCell>
        <mxCell id="KfTbh1dECPJ_f9M-DG7v-31" value="" style="endArrow=none;html=1;rounded=0;entryX=0.5;entryY=1;entryDx=0;entryDy=0;exitX=0.25;exitY=0;exitDx=0;exitDy=0;" edge="1" parent="1" source="6NzxlKT72TGMnHqDzSqp-1" target="KfTbh1dECPJ_f9M-DG7v-3">
          <mxGeometry width="50" height="50" relative="1" as="geometry">
            <mxPoint x="220" y="570" as="sourcePoint" />
            <mxPoint x="270" y="520" as="targetPoint" />
          </mxGeometry>
        </mxCell>
        <mxCell id="KfTbh1dECPJ_f9M-DG7v-32" value="" style="endArrow=none;html=1;rounded=0;entryX=0.5;entryY=1;entryDx=0;entryDy=0;exitX=0;exitY=0;exitDx=0;exitDy=0;" edge="1" parent="1" source="6NzxlKT72TGMnHqDzSqp-25" target="6NzxlKT72TGMnHqDzSqp-40">
          <mxGeometry width="50" height="50" relative="1" as="geometry">
            <mxPoint x="460" y="450" as="sourcePoint" />
            <mxPoint x="510" y="400" as="targetPoint" />
          </mxGeometry>
        </mxCell>
        <mxCell id="KfTbh1dECPJ_f9M-DG7v-33" value="" style="endArrow=none;html=1;rounded=0;entryX=0;entryY=1;entryDx=0;entryDy=0;exitX=0.5;exitY=0;exitDx=0;exitDy=0;" edge="1" parent="1" source="6NzxlKT72TGMnHqDzSqp-25" target="6NzxlKT72TGMnHqDzSqp-39">
          <mxGeometry width="50" height="50" relative="1" as="geometry">
            <mxPoint x="410" y="510" as="sourcePoint" />
            <mxPoint x="460" y="460" as="targetPoint" />
          </mxGeometry>
        </mxCell>
        <mxCell id="KfTbh1dECPJ_f9M-DG7v-34" value="" style="endArrow=none;html=1;rounded=0;entryX=0;entryY=0.5;entryDx=0;entryDy=0;exitX=1;exitY=0;exitDx=0;exitDy=0;" edge="1" parent="1" source="6NzxlKT72TGMnHqDzSqp-25" target="6NzxlKT72TGMnHqDzSqp-42">
          <mxGeometry width="50" height="50" relative="1" as="geometry">
            <mxPoint x="550" y="470" as="sourcePoint" />
            <mxPoint x="600" y="420" as="targetPoint" />
          </mxGeometry>
        </mxCell>
        <mxCell id="KfTbh1dECPJ_f9M-DG7v-35" value="" style="endArrow=none;html=1;rounded=0;entryX=0.5;entryY=1;entryDx=0;entryDy=0;exitX=0.5;exitY=0;exitDx=0;exitDy=0;" edge="1" parent="1" source="6NzxlKT72TGMnHqDzSqp-28" target="KfTbh1dECPJ_f9M-DG7v-7">
          <mxGeometry width="50" height="50" relative="1" as="geometry">
            <mxPoint x="730" y="470" as="sourcePoint" />
            <mxPoint x="780" y="420" as="targetPoint" />
          </mxGeometry>
        </mxCell>
        <mxCell id="KfTbh1dECPJ_f9M-DG7v-36" value="" style="endArrow=none;html=1;rounded=0;entryX=0.75;entryY=1;entryDx=0;entryDy=0;exitX=0;exitY=0;exitDx=0;exitDy=0;" edge="1" parent="1" source="KfTbh1dECPJ_f9M-DG7v-9" target="6NzxlKT72TGMnHqDzSqp-28">
          <mxGeometry width="50" height="50" relative="1" as="geometry">
            <mxPoint x="1180" y="440" as="sourcePoint" />
            <mxPoint x="1230" y="390" as="targetPoint" />
          </mxGeometry>
        </mxCell>
        <mxCell id="KfTbh1dECPJ_f9M-DG7v-37" value="" style="endArrow=none;html=1;rounded=0;shape=link;" edge="1" parent="1">
          <mxGeometry width="50" height="50" relative="1" as="geometry">
            <mxPoint x="315" y="362" as="sourcePoint" />
            <mxPoint x="365" y="362" as="targetPoint" />
          </mxGeometry>
        </mxCell>
        <mxCell id="KfTbh1dECPJ_f9M-DG7v-38" value="" style="endArrow=none;html=1;rounded=0;shape=link;" edge="1" parent="1">
          <mxGeometry width="50" height="50" relative="1" as="geometry">
            <mxPoint x="405" y="364" as="sourcePoint" />
            <mxPoint x="455" y="364" as="targetPoint" />
          </mxGeometry>
        </mxCell>
        <mxCell id="KfTbh1dECPJ_f9M-DG7v-39" value="" style="endArrow=none;html=1;rounded=0;shape=link;" edge="1" parent="1">
          <mxGeometry width="50" height="50" relative="1" as="geometry">
            <mxPoint x="772" y="384.5" as="sourcePoint" />
            <mxPoint x="822" y="384.5" as="targetPoint" />
          </mxGeometry>
        </mxCell>
        <mxCell id="KfTbh1dECPJ_f9M-DG7v-40" value="" style="endArrow=none;html=1;rounded=0;shape=link;" edge="1" parent="1">
          <mxGeometry width="50" height="50" relative="1" as="geometry">
            <mxPoint x="912" y="384.5" as="sourcePoint" />
            <mxPoint x="962" y="384.5" as="targetPoint" />
          </mxGeometry>
        </mxCell>
      </root>
    </mxGraphModel>
  </diagram>
</mxfile>
